<svg xmlns="http://www.w3.org/2000/svg" viewBox="0 0 96 96"><path d="M48 18c13 0 22 9 22 21 0 9-5 14-9 18-2 2-3 5-3 8H38c0-3-1-6-3-8-4-4-9-9-9-18 0-12 9-21 22-21z" fill="#FFF3B0" stroke="#12152A" stroke-width="3" stroke-linejoin="round" stroke-linecap="round"/> <path d="M38 66h20v6c0 3-2 5-5 5H43c-3 0-5-2-5-5z" fill="#687086" stroke="#12152A" stroke-width="3" stroke-linejoin="round" stroke-linecap="round"/> <path d="M38 71h20" stroke="#12152A" stroke-width="2"/> <circle cx="41" cy="42" r="2.8" fill="#12152A"/> <circle cx="55" cy="42" r="2.8" fill="#12152A"/> <circle cx="36" cy="48" r="3.2" fill="#FF776D" opacity=".45"/> <circle cx="60" cy="48" r="3.2" fill="#FF776D" opacity=".45"/> <path d="M43 49 q5 5 10 0" fill="none" stroke="#12152A" stroke-width="2.6" stroke-linecap="round"/></svg>
