<svg xmlns="http://www.w3.org/2000/svg" viewBox="0 0 96 96"><path d="M28 66c0-4 0-24 0-28h34v24c0 6-5 10-11 10H38c-6 0-10-3-10-6z" fill="#F7F4EC" stroke="#12152A" stroke-width="3" stroke-linejoin="round" stroke-linecap="round"/> <path d="M62 44h5c5 0 8 3 8 8s-3 8-8 8h-5" fill="none" stroke="#12152A" stroke-width="3" stroke-linejoin="round" stroke-linecap="round"/> <path d="M38 22c-3 4 3 6 0 10M50 20c-3 4 3 6 0 10" fill="none" stroke="#12152A" stroke-width="3" stroke-linejoin="round" stroke-linecap="round"/> <circle cx="38" cy="51" r="2.8" fill="#12152A"/> <circle cx="52" cy="51" r="2.8" fill="#12152A"/> <circle cx="33" cy="57" r="3.2" fill="#FF776D" opacity=".45"/> <circle cx="57" cy="57" r="3.2" fill="#FF776D" opacity=".45"/> <path d="M40 58 q5 5 10 0" fill="none" stroke="#12152A" stroke-width="2.6" stroke-linecap="round"/></svg>
